<svg xmlns="http://www.w3.org/2000/svg" width="720" height="316" viewBox="0 0 720 316" role="img" aria-labelledby="title desc">
<title id="title">법승 시스템 개관</title><desc id="desc">네 시스템의 화면, 서버, 데이터 저장소를 행별로 표시. 시스템 간 연동과 담당 범위는 본문 설명 참조.</desc>
<defs><marker id="arrow" viewBox="0 0 10 10" refX="9" refY="5" markerWidth="7" markerHeight="7" orient="auto-start-reverse"><path d="M 0 0 L 10 5 L 0 10 z" fill="#526782"/></marker><marker id="arrowStart" viewBox="0 0 10 10" refX="9" refY="5" markerWidth="7" markerHeight="7" orient="auto-start-reverse"><path d="M 0 0 L 10 5 L 0 10 z" fill="#526782"/></marker></defs>
<style>text{font-family:"Malgun Gothic","Apple SD Gothic Neo","Noto Sans KR",sans-serif;fill:#182b44}.label{font-size:21px;font-weight:700}.sub{font-size:17px;fill:#425875}.hint{font-size:17px;fill:#425875}.app{fill:#eff5ff;stroke:#7695c4;stroke-width:1.7}.api{fill:#edf8f6;stroke:#64a39a;stroke-width:1.7}.data{fill:#f4f0fa;stroke:#a08cb8;stroke-width:1.7}.external{fill:#f8fafc;stroke:#9baabd;stroke-width:1.7}.edge{fill:none;stroke:#526782;stroke-width:2.3;stroke-linejoin:round}.dashed{stroke-dasharray:6 4}</style>
<g><rect x="8" y="8" width="212" height="66" rx="11" class="app"/><text x="114" y="36" class="label" text-anchor="middle">사건관리 웹</text><text x="114" y="61" class="sub" text-anchor="middle">React · TypeScript</text></g><g><rect x="254" y="8" width="212" height="66" rx="11" class="api"/><text x="360" y="36" class="label" text-anchor="middle">사건관리 API</text><text x="360" y="61" class="sub" text-anchor="middle">FastAPI · Python</text></g><g><rect x="500" y="8" width="212" height="66" rx="11" class="data"/><text x="606" y="36" class="label" text-anchor="middle">사건관리 DB</text><text x="606" y="61" class="sub" text-anchor="middle">PostgreSQL</text></g><path d="M 222 41 H 250" class="edge" marker-end="url(#arrow)"/><path d="M 468 41 H 496" class="edge" marker-end="url(#arrow)"/><g><rect x="8" y="86" width="212" height="66" rx="11" class="app"/><text x="114" y="114" class="label" text-anchor="middle">CRM 웹 · 앱</text><text x="114" y="139" class="sub" text-anchor="middle">Flutter · PWA / Android</text></g><g><rect x="254" y="86" width="212" height="66" rx="11" class="api"/><text x="360" y="114" class="label" text-anchor="middle">CRM API</text><text x="360" y="139" class="sub" text-anchor="middle">Node.js · Express</text></g><g><rect x="500" y="86" width="212" height="66" rx="11" class="data"/><text x="606" y="114" class="label" text-anchor="middle">CRM DB</text><text x="606" y="139" class="sub" text-anchor="middle">PostgreSQL</text></g><path d="M 222 119 H 250" class="edge" marker-end="url(#arrow)"/><path d="M 468 119 H 496" class="edge" marker-end="url(#arrow)"/><g><rect x="8" y="164" width="212" height="66" rx="11" class="app"/><text x="114" y="192" class="label" text-anchor="middle">홈페이지 V2</text><text x="114" y="217" class="sub" text-anchor="middle">Next.js · CMS</text></g><g><rect x="254" y="164" width="212" height="66" rx="11" class="api"/><text x="360" y="192" class="label" text-anchor="middle">홈페이지 API</text><text x="360" y="217" class="sub" text-anchor="middle">NestJS · Prisma</text></g><g><rect x="500" y="164" width="212" height="66" rx="11" class="data"/><text x="606" y="192" class="label" text-anchor="middle">홈페이지 V2 DB</text><text x="606" y="217" class="sub" text-anchor="middle">PostgreSQL</text></g><path d="M 222 197 H 250" class="edge" marker-end="url(#arrow)"/><path d="M 468 197 H 496" class="edge" marker-end="url(#arrow)"/><g><rect x="8" y="242" width="212" height="66" rx="11" class="app"/><text x="114" y="270" class="label" text-anchor="middle">레거시 홈페이지</text><text x="114" y="295" class="sub" text-anchor="middle">CSHTML · JavaScript</text></g><g><rect x="254" y="242" width="212" height="66" rx="11" class="api"/><text x="360" y="270" class="label" text-anchor="middle">.NET 애플리케이션</text><text x="360" y="295" class="sub" text-anchor="middle">ASP.NET Core · IIS</text></g><g><rect x="500" y="242" width="212" height="66" rx="11" class="data"/><text x="606" y="270" class="label" text-anchor="middle">레거시 DB</text><text x="606" y="295" class="sub" text-anchor="middle">SQL Server</text></g><path d="M 222 275 H 250" class="edge" marker-end="url(#arrow)"/><path d="M 468 275 H 496" class="edge" marker-end="url(#arrow)"/></svg>
